<mxfile host="Electron" agent="Mozilla/5.0 (Windows NT 10.0; Win64; x64) AppleWebKit/537.36 (KHTML, like Gecko) draw.io/24.7.8 Chrome/128.0.6613.36 Electron/32.0.1 Safari/537.36" version="24.7.8">
  <diagram name="Pagina-1" id="JDAOXSwhQihka_aIWBLD">
    <mxGraphModel dx="1050" dy="1798" grid="1" gridSize="10" guides="1" tooltips="1" connect="1" arrows="1" fold="1" page="1" pageScale="1" pageWidth="827" pageHeight="1169" math="0" shadow="0">
      <root>
        <mxCell id="0" />
        <mxCell id="1" parent="0" />
        <mxCell id="RdyJL8XfCO785PZ9XOAZ-18" style="edgeStyle=orthogonalEdgeStyle;rounded=0;orthogonalLoop=1;jettySize=auto;html=1;entryX=0;entryY=0.5;entryDx=0;entryDy=0;" parent="1" source="RdyJL8XfCO785PZ9XOAZ-1" target="RdyJL8XfCO785PZ9XOAZ-7" edge="1">
          <mxGeometry relative="1" as="geometry" />
        </mxCell>
        <mxCell id="RdyJL8XfCO785PZ9XOAZ-19" style="edgeStyle=orthogonalEdgeStyle;rounded=0;orthogonalLoop=1;jettySize=auto;html=1;entryX=0;entryY=0.5;entryDx=0;entryDy=0;" parent="1" source="RdyJL8XfCO785PZ9XOAZ-1" target="RdyJL8XfCO785PZ9XOAZ-10" edge="1">
          <mxGeometry relative="1" as="geometry" />
        </mxCell>
        <mxCell id="RdyJL8XfCO785PZ9XOAZ-20" style="edgeStyle=orthogonalEdgeStyle;rounded=0;orthogonalLoop=1;jettySize=auto;html=1;entryX=0;entryY=0.5;entryDx=0;entryDy=0;" parent="1" source="RdyJL8XfCO785PZ9XOAZ-1" target="RdyJL8XfCO785PZ9XOAZ-14" edge="1">
          <mxGeometry relative="1" as="geometry" />
        </mxCell>
        <mxCell id="RdyJL8XfCO785PZ9XOAZ-22" style="edgeStyle=orthogonalEdgeStyle;rounded=0;orthogonalLoop=1;jettySize=auto;html=1;entryX=0;entryY=0.5;entryDx=0;entryDy=0;" parent="1" source="RdyJL8XfCO785PZ9XOAZ-1" target="RdyJL8XfCO785PZ9XOAZ-12" edge="1">
          <mxGeometry relative="1" as="geometry" />
        </mxCell>
        <mxCell id="RdyJL8XfCO785PZ9XOAZ-109" style="edgeStyle=orthogonalEdgeStyle;rounded=0;orthogonalLoop=1;jettySize=auto;html=1;entryX=0;entryY=0.5;entryDx=0;entryDy=0;endArrow=doubleBlock;endFill=1;" parent="1" source="RdyJL8XfCO785PZ9XOAZ-1" target="RdyJL8XfCO785PZ9XOAZ-107" edge="1">
          <mxGeometry relative="1" as="geometry">
            <mxPoint x="360" y="145" as="targetPoint" />
          </mxGeometry>
        </mxCell>
        <mxCell id="RdyJL8XfCO785PZ9XOAZ-1" value="MUSEO" style="rounded=0;whiteSpace=wrap;html=1;" parent="1" vertex="1">
          <mxGeometry x="104" y="120" width="100" height="50" as="geometry" />
        </mxCell>
        <mxCell id="RdyJL8XfCO785PZ9XOAZ-33" style="edgeStyle=orthogonalEdgeStyle;rounded=0;orthogonalLoop=1;jettySize=auto;html=1;entryX=0;entryY=0.5;entryDx=0;entryDy=0;" parent="1" source="RdyJL8XfCO785PZ9XOAZ-2" target="RdyJL8XfCO785PZ9XOAZ-25" edge="1">
          <mxGeometry relative="1" as="geometry" />
        </mxCell>
        <mxCell id="RdyJL8XfCO785PZ9XOAZ-34" style="edgeStyle=orthogonalEdgeStyle;rounded=0;orthogonalLoop=1;jettySize=auto;html=1;entryX=0;entryY=0.5;entryDx=0;entryDy=0;" parent="1" source="RdyJL8XfCO785PZ9XOAZ-2" target="RdyJL8XfCO785PZ9XOAZ-27" edge="1">
          <mxGeometry relative="1" as="geometry" />
        </mxCell>
        <mxCell id="RdyJL8XfCO785PZ9XOAZ-35" style="edgeStyle=orthogonalEdgeStyle;rounded=0;orthogonalLoop=1;jettySize=auto;html=1;entryX=0;entryY=0.5;entryDx=0;entryDy=0;" parent="1" source="RdyJL8XfCO785PZ9XOAZ-2" target="RdyJL8XfCO785PZ9XOAZ-29" edge="1">
          <mxGeometry relative="1" as="geometry" />
        </mxCell>
        <mxCell id="RdyJL8XfCO785PZ9XOAZ-36" style="edgeStyle=orthogonalEdgeStyle;rounded=0;orthogonalLoop=1;jettySize=auto;html=1;entryX=0;entryY=0.5;entryDx=0;entryDy=0;" parent="1" source="RdyJL8XfCO785PZ9XOAZ-2" target="RdyJL8XfCO785PZ9XOAZ-31" edge="1">
          <mxGeometry relative="1" as="geometry" />
        </mxCell>
        <mxCell id="RdyJL8XfCO785PZ9XOAZ-112" style="edgeStyle=orthogonalEdgeStyle;rounded=0;orthogonalLoop=1;jettySize=auto;html=1;entryX=1;entryY=0.5;entryDx=0;entryDy=0;" parent="1" source="RdyJL8XfCO785PZ9XOAZ-2" target="RdyJL8XfCO785PZ9XOAZ-107" edge="1">
          <mxGeometry relative="1" as="geometry" />
        </mxCell>
        <mxCell id="RdyJL8XfCO785PZ9XOAZ-117" style="edgeStyle=orthogonalEdgeStyle;rounded=0;orthogonalLoop=1;jettySize=auto;html=1;entryX=0;entryY=0.5;entryDx=0;entryDy=0;endArrow=doubleBlock;endFill=1;" parent="1" source="RdyJL8XfCO785PZ9XOAZ-2" target="RdyJL8XfCO785PZ9XOAZ-116" edge="1">
          <mxGeometry relative="1" as="geometry" />
        </mxCell>
        <mxCell id="RdyJL8XfCO785PZ9XOAZ-124" style="edgeStyle=orthogonalEdgeStyle;rounded=0;orthogonalLoop=1;jettySize=auto;html=1;endArrow=doubleBlock;endFill=1;" parent="1" source="RdyJL8XfCO785PZ9XOAZ-2" target="RdyJL8XfCO785PZ9XOAZ-123" edge="1">
          <mxGeometry relative="1" as="geometry" />
        </mxCell>
        <mxCell id="RdyJL8XfCO785PZ9XOAZ-2" value="OPERA" style="rounded=0;whiteSpace=wrap;html=1;" parent="1" vertex="1">
          <mxGeometry x="550" y="120" width="100" height="50" as="geometry" />
        </mxCell>
        <mxCell id="RdyJL8XfCO785PZ9XOAZ-45" style="edgeStyle=orthogonalEdgeStyle;rounded=0;orthogonalLoop=1;jettySize=auto;html=1;entryX=0;entryY=0.5;entryDx=0;entryDy=0;" parent="1" source="RdyJL8XfCO785PZ9XOAZ-3" target="RdyJL8XfCO785PZ9XOAZ-37" edge="1">
          <mxGeometry relative="1" as="geometry" />
        </mxCell>
        <mxCell id="RdyJL8XfCO785PZ9XOAZ-46" style="edgeStyle=orthogonalEdgeStyle;rounded=0;orthogonalLoop=1;jettySize=auto;html=1;entryX=0;entryY=0.5;entryDx=0;entryDy=0;" parent="1" source="RdyJL8XfCO785PZ9XOAZ-3" target="RdyJL8XfCO785PZ9XOAZ-39" edge="1">
          <mxGeometry relative="1" as="geometry" />
        </mxCell>
        <mxCell id="RdyJL8XfCO785PZ9XOAZ-47" style="edgeStyle=orthogonalEdgeStyle;rounded=0;orthogonalLoop=1;jettySize=auto;html=1;entryX=0;entryY=0.5;entryDx=0;entryDy=0;" parent="1" source="RdyJL8XfCO785PZ9XOAZ-3" target="RdyJL8XfCO785PZ9XOAZ-41" edge="1">
          <mxGeometry relative="1" as="geometry" />
        </mxCell>
        <mxCell id="RdyJL8XfCO785PZ9XOAZ-48" style="edgeStyle=orthogonalEdgeStyle;rounded=0;orthogonalLoop=1;jettySize=auto;html=1;entryX=0;entryY=0.5;entryDx=0;entryDy=0;" parent="1" source="RdyJL8XfCO785PZ9XOAZ-3" target="RdyJL8XfCO785PZ9XOAZ-43" edge="1">
          <mxGeometry relative="1" as="geometry" />
        </mxCell>
        <mxCell id="RdyJL8XfCO785PZ9XOAZ-118" style="edgeStyle=orthogonalEdgeStyle;rounded=0;orthogonalLoop=1;jettySize=auto;html=1;entryX=1;entryY=0.5;entryDx=0;entryDy=0;" parent="1" source="RdyJL8XfCO785PZ9XOAZ-3" target="RdyJL8XfCO785PZ9XOAZ-116" edge="1">
          <mxGeometry relative="1" as="geometry" />
        </mxCell>
        <mxCell id="RdyJL8XfCO785PZ9XOAZ-3" value="ARTISTA" style="rounded=0;whiteSpace=wrap;html=1;" parent="1" vertex="1">
          <mxGeometry x="955" y="120" width="100" height="50" as="geometry" />
        </mxCell>
        <mxCell id="RdyJL8XfCO785PZ9XOAZ-64" style="edgeStyle=orthogonalEdgeStyle;rounded=0;orthogonalLoop=1;jettySize=auto;html=1;entryX=0;entryY=0.5;entryDx=0;entryDy=0;" parent="1" source="RdyJL8XfCO785PZ9XOAZ-4" target="RdyJL8XfCO785PZ9XOAZ-57" edge="1">
          <mxGeometry relative="1" as="geometry" />
        </mxCell>
        <mxCell id="RdyJL8XfCO785PZ9XOAZ-73" style="edgeStyle=orthogonalEdgeStyle;rounded=0;orthogonalLoop=1;jettySize=auto;html=1;entryX=0;entryY=0.5;entryDx=0;entryDy=0;" parent="1" source="RdyJL8XfCO785PZ9XOAZ-4" target="RdyJL8XfCO785PZ9XOAZ-59" edge="1">
          <mxGeometry relative="1" as="geometry" />
        </mxCell>
        <mxCell id="RdyJL8XfCO785PZ9XOAZ-74" style="edgeStyle=orthogonalEdgeStyle;rounded=0;orthogonalLoop=1;jettySize=auto;html=1;entryX=0;entryY=0.5;entryDx=0;entryDy=0;" parent="1" source="RdyJL8XfCO785PZ9XOAZ-4" target="RdyJL8XfCO785PZ9XOAZ-60" edge="1">
          <mxGeometry relative="1" as="geometry" />
        </mxCell>
        <mxCell id="RdyJL8XfCO785PZ9XOAZ-75" style="edgeStyle=orthogonalEdgeStyle;rounded=0;orthogonalLoop=1;jettySize=auto;html=1;entryX=0;entryY=0.5;entryDx=0;entryDy=0;endArrow=doubleBlock;endFill=1;" parent="1" source="RdyJL8XfCO785PZ9XOAZ-4" target="RdyJL8XfCO785PZ9XOAZ-62" edge="1">
          <mxGeometry relative="1" as="geometry" />
        </mxCell>
        <mxCell id="RdyJL8XfCO785PZ9XOAZ-80" style="edgeStyle=orthogonalEdgeStyle;rounded=0;orthogonalLoop=1;jettySize=auto;html=1;entryX=0;entryY=0.5;entryDx=0;entryDy=0;" parent="1" source="RdyJL8XfCO785PZ9XOAZ-4" target="RdyJL8XfCO785PZ9XOAZ-76" edge="1">
          <mxGeometry relative="1" as="geometry" />
        </mxCell>
        <mxCell id="RdyJL8XfCO785PZ9XOAZ-81" style="edgeStyle=orthogonalEdgeStyle;rounded=0;orthogonalLoop=1;jettySize=auto;html=1;entryX=0;entryY=0.5;entryDx=0;entryDy=0;" parent="1" source="RdyJL8XfCO785PZ9XOAZ-4" target="RdyJL8XfCO785PZ9XOAZ-78" edge="1">
          <mxGeometry relative="1" as="geometry" />
        </mxCell>
        <mxCell id="RdyJL8XfCO785PZ9XOAZ-4" value="DIPINTO" style="rounded=0;whiteSpace=wrap;html=1;" parent="1" vertex="1">
          <mxGeometry x="400" y="400" width="100" height="50" as="geometry" />
        </mxCell>
        <mxCell id="RdyJL8XfCO785PZ9XOAZ-7" value="" style="ellipse;whiteSpace=wrap;html=1;aspect=fixed;fillColor=#f5f5f5;fontColor=#333333;strokeColor=#666666;" parent="1" vertex="1">
          <mxGeometry x="190" y="190" width="30" height="30" as="geometry" />
        </mxCell>
        <mxCell id="RdyJL8XfCO785PZ9XOAZ-9" value="NOME MUSEO" style="text;html=1;align=center;verticalAlign=middle;resizable=0;points=[];autosize=1;strokeColor=none;fillColor=none;" parent="1" vertex="1">
          <mxGeometry x="230" y="190" width="110" height="30" as="geometry" />
        </mxCell>
        <mxCell id="RdyJL8XfCO785PZ9XOAZ-10" value="" style="ellipse;whiteSpace=wrap;html=1;aspect=fixed;fillColor=#f5f5f5;fontColor=#333333;strokeColor=#666666;" parent="1" vertex="1">
          <mxGeometry x="190" y="230" width="30" height="30" as="geometry" />
        </mxCell>
        <mxCell id="RdyJL8XfCO785PZ9XOAZ-11" value="INDIRIZZO" style="text;html=1;align=center;verticalAlign=middle;resizable=0;points=[];autosize=1;strokeColor=none;fillColor=none;" parent="1" vertex="1">
          <mxGeometry x="230" y="320" width="80" height="30" as="geometry" />
        </mxCell>
        <mxCell id="RdyJL8XfCO785PZ9XOAZ-12" value="" style="ellipse;whiteSpace=wrap;html=1;aspect=fixed;fillColor=#f5f5f5;fontColor=#333333;strokeColor=#666666;" parent="1" vertex="1">
          <mxGeometry x="190" y="320" width="30" height="30" as="geometry" />
        </mxCell>
        <mxCell id="RdyJL8XfCO785PZ9XOAZ-13" value="CITTA" style="text;html=1;align=center;verticalAlign=middle;resizable=0;points=[];autosize=1;strokeColor=none;fillColor=none;" parent="1" vertex="1">
          <mxGeometry x="230" y="230" width="60" height="30" as="geometry" />
        </mxCell>
        <mxCell id="RdyJL8XfCO785PZ9XOAZ-14" value="" style="ellipse;whiteSpace=wrap;html=1;aspect=fixed;fillColor=#f5f5f5;fontColor=#333333;strokeColor=#666666;" parent="1" vertex="1">
          <mxGeometry x="190" y="360" width="30" height="30" as="geometry" />
        </mxCell>
        <mxCell id="RdyJL8XfCO785PZ9XOAZ-15" value="DIRETTORE" style="text;html=1;align=center;verticalAlign=middle;resizable=0;points=[];autosize=1;strokeColor=none;fillColor=none;" parent="1" vertex="1">
          <mxGeometry x="230" y="360" width="90" height="30" as="geometry" />
        </mxCell>
        <mxCell id="RdyJL8XfCO785PZ9XOAZ-25" value="" style="ellipse;whiteSpace=wrap;html=1;aspect=fixed;" parent="1" vertex="1">
          <mxGeometry x="630" y="190" width="30" height="30" as="geometry" />
        </mxCell>
        <mxCell id="RdyJL8XfCO785PZ9XOAZ-26" value="CODICE" style="text;html=1;align=center;verticalAlign=middle;resizable=0;points=[];autosize=1;strokeColor=none;fillColor=none;" parent="1" vertex="1">
          <mxGeometry x="675" y="190" width="70" height="30" as="geometry" />
        </mxCell>
        <mxCell id="RdyJL8XfCO785PZ9XOAZ-27" value="" style="ellipse;whiteSpace=wrap;html=1;aspect=fixed;fillColor=#f5f5f5;fontColor=#333333;strokeColor=#666666;" parent="1" vertex="1">
          <mxGeometry x="630" y="230" width="30" height="30" as="geometry" />
        </mxCell>
        <mxCell id="RdyJL8XfCO785PZ9XOAZ-28" value="ANNO DI CREAZIONE" style="text;html=1;align=center;verticalAlign=middle;resizable=0;points=[];autosize=1;strokeColor=none;fillColor=none;" parent="1" vertex="1">
          <mxGeometry x="660" y="230" width="150" height="30" as="geometry" />
        </mxCell>
        <mxCell id="RdyJL8XfCO785PZ9XOAZ-29" value="" style="ellipse;whiteSpace=wrap;html=1;aspect=fixed;fillColor=#f5f5f5;fontColor=#333333;strokeColor=#666666;" parent="1" vertex="1">
          <mxGeometry x="630" y="270" width="30" height="30" as="geometry" />
        </mxCell>
        <mxCell id="RdyJL8XfCO785PZ9XOAZ-30" value="TITOLO" style="text;html=1;align=center;verticalAlign=middle;resizable=0;points=[];autosize=1;strokeColor=none;fillColor=none;" parent="1" vertex="1">
          <mxGeometry x="675" y="270" width="70" height="30" as="geometry" />
        </mxCell>
        <mxCell id="RdyJL8XfCO785PZ9XOAZ-31" value="" style="ellipse;whiteSpace=wrap;html=1;aspect=fixed;fillColor=#f5f5f5;fontColor=#333333;strokeColor=#666666;" parent="1" vertex="1">
          <mxGeometry x="630" y="310" width="30" height="30" as="geometry" />
        </mxCell>
        <mxCell id="RdyJL8XfCO785PZ9XOAZ-32" value="PERSONAGGI" style="text;html=1;align=center;verticalAlign=middle;resizable=0;points=[];autosize=1;strokeColor=none;fillColor=none;" parent="1" vertex="1">
          <mxGeometry x="660" y="310" width="100" height="30" as="geometry" />
        </mxCell>
        <mxCell id="RdyJL8XfCO785PZ9XOAZ-37" value="" style="ellipse;whiteSpace=wrap;html=1;aspect=fixed;fillColor=#f5f5f5;fontColor=#333333;strokeColor=#666666;" parent="1" vertex="1">
          <mxGeometry x="1055" y="190" width="30" height="30" as="geometry" />
        </mxCell>
        <mxCell id="RdyJL8XfCO785PZ9XOAZ-38" value="NOME" style="text;html=1;align=center;verticalAlign=middle;resizable=0;points=[];autosize=1;strokeColor=none;fillColor=none;" parent="1" vertex="1">
          <mxGeometry x="1090" y="190" width="60" height="30" as="geometry" />
        </mxCell>
        <mxCell id="RdyJL8XfCO785PZ9XOAZ-39" value="" style="ellipse;whiteSpace=wrap;html=1;aspect=fixed;fillColor=#f5f5f5;fontColor=#333333;strokeColor=#666666;" parent="1" vertex="1">
          <mxGeometry x="1055" y="230" width="30" height="30" as="geometry" />
        </mxCell>
        <mxCell id="RdyJL8XfCO785PZ9XOAZ-40" value="NAZIONALITA&#39;" style="text;html=1;align=center;verticalAlign=middle;resizable=0;points=[];autosize=1;strokeColor=none;fillColor=none;" parent="1" vertex="1">
          <mxGeometry x="1090" y="230" width="100" height="30" as="geometry" />
        </mxCell>
        <mxCell id="RdyJL8XfCO785PZ9XOAZ-41" value="" style="ellipse;whiteSpace=wrap;html=1;aspect=fixed;fillColor=#f5f5f5;fontColor=#333333;strokeColor=#666666;" parent="1" vertex="1">
          <mxGeometry x="1055" y="270" width="30" height="30" as="geometry" />
        </mxCell>
        <mxCell id="RdyJL8XfCO785PZ9XOAZ-42" value="DATA NASCITA" style="text;html=1;align=center;verticalAlign=middle;resizable=0;points=[];autosize=1;strokeColor=none;fillColor=none;" parent="1" vertex="1">
          <mxGeometry x="1085" y="270" width="110" height="30" as="geometry" />
        </mxCell>
        <mxCell id="RdyJL8XfCO785PZ9XOAZ-43" value="" style="ellipse;whiteSpace=wrap;html=1;aspect=fixed;fillColor=#f5f5f5;fontColor=#333333;strokeColor=#666666;" parent="1" vertex="1">
          <mxGeometry x="1055" y="310" width="30" height="30" as="geometry" />
        </mxCell>
        <mxCell id="RdyJL8XfCO785PZ9XOAZ-44" value="DATA MORTE" style="text;html=1;align=center;verticalAlign=middle;resizable=0;points=[];autosize=1;strokeColor=none;fillColor=none;" parent="1" vertex="1">
          <mxGeometry x="1090" y="310" width="100" height="30" as="geometry" />
        </mxCell>
        <mxCell id="RdyJL8XfCO785PZ9XOAZ-57" value="" style="ellipse;whiteSpace=wrap;html=1;aspect=fixed;" parent="1" vertex="1">
          <mxGeometry x="490" y="470" width="30" height="30" as="geometry" />
        </mxCell>
        <mxCell id="RdyJL8XfCO785PZ9XOAZ-58" value="CODICE" style="text;html=1;align=center;verticalAlign=middle;resizable=0;points=[];autosize=1;strokeColor=none;fillColor=none;" parent="1" vertex="1">
          <mxGeometry x="520" y="470" width="70" height="30" as="geometry" />
        </mxCell>
        <mxCell id="RdyJL8XfCO785PZ9XOAZ-59" value="" style="ellipse;whiteSpace=wrap;html=1;aspect=fixed;fillColor=#f5f5f5;fontColor=#333333;strokeColor=#666666;" parent="1" vertex="1">
          <mxGeometry x="490" y="510" width="30" height="30" as="geometry" />
        </mxCell>
        <mxCell id="RdyJL8XfCO785PZ9XOAZ-60" value="" style="ellipse;whiteSpace=wrap;html=1;aspect=fixed;fillColor=#f5f5f5;fontColor=#333333;strokeColor=#666666;" parent="1" vertex="1">
          <mxGeometry x="490" y="550" width="30" height="30" as="geometry" />
        </mxCell>
        <mxCell id="RdyJL8XfCO785PZ9XOAZ-61" value="TITOLO" style="text;html=1;align=center;verticalAlign=middle;resizable=0;points=[];autosize=1;strokeColor=none;fillColor=none;" parent="1" vertex="1">
          <mxGeometry x="520" y="550" width="70" height="30" as="geometry" />
        </mxCell>
        <mxCell id="RdyJL8XfCO785PZ9XOAZ-62" value="" style="ellipse;whiteSpace=wrap;html=1;aspect=fixed;fillColor=#f5f5f5;fontColor=#333333;strokeColor=#666666;" parent="1" vertex="1">
          <mxGeometry x="490" y="590" width="30" height="30" as="geometry" />
        </mxCell>
        <mxCell id="RdyJL8XfCO785PZ9XOAZ-63" value="PERSONAGGI" style="text;html=1;align=center;verticalAlign=middle;resizable=0;points=[];autosize=1;strokeColor=none;fillColor=none;" parent="1" vertex="1">
          <mxGeometry x="520" y="590" width="100" height="30" as="geometry" />
        </mxCell>
        <mxCell id="RdyJL8XfCO785PZ9XOAZ-65" value="ANNO DI CREAZIONE" style="text;html=1;align=center;verticalAlign=middle;resizable=0;points=[];autosize=1;strokeColor=none;fillColor=none;" parent="1" vertex="1">
          <mxGeometry x="520" y="510" width="150" height="30" as="geometry" />
        </mxCell>
        <mxCell id="RdyJL8XfCO785PZ9XOAZ-76" value="" style="ellipse;whiteSpace=wrap;html=1;aspect=fixed;fillColor=#f5f5f5;fontColor=#333333;strokeColor=#666666;" parent="1" vertex="1">
          <mxGeometry x="490" y="630" width="30" height="30" as="geometry" />
        </mxCell>
        <mxCell id="RdyJL8XfCO785PZ9XOAZ-77" value="TIPO PITTURA" style="text;html=1;align=center;verticalAlign=middle;resizable=0;points=[];autosize=1;strokeColor=none;fillColor=none;" parent="1" vertex="1">
          <mxGeometry x="515" y="630" width="110" height="30" as="geometry" />
        </mxCell>
        <mxCell id="RdyJL8XfCO785PZ9XOAZ-78" value="" style="ellipse;whiteSpace=wrap;html=1;aspect=fixed;fillColor=#f5f5f5;fontColor=#333333;strokeColor=#666666;" parent="1" vertex="1">
          <mxGeometry x="490" y="670" width="30" height="30" as="geometry" />
        </mxCell>
        <mxCell id="RdyJL8XfCO785PZ9XOAZ-79" value="DIMENSIONI" style="text;html=1;align=center;verticalAlign=middle;resizable=0;points=[];autosize=1;strokeColor=none;fillColor=none;" parent="1" vertex="1">
          <mxGeometry x="530" y="670" width="90" height="30" as="geometry" />
        </mxCell>
        <mxCell id="RdyJL8XfCO785PZ9XOAZ-82" style="edgeStyle=orthogonalEdgeStyle;rounded=0;orthogonalLoop=1;jettySize=auto;html=1;entryX=0;entryY=0.5;entryDx=0;entryDy=0;" parent="1" source="RdyJL8XfCO785PZ9XOAZ-88" target="RdyJL8XfCO785PZ9XOAZ-89" edge="1">
          <mxGeometry relative="1" as="geometry" />
        </mxCell>
        <mxCell id="RdyJL8XfCO785PZ9XOAZ-83" style="edgeStyle=orthogonalEdgeStyle;rounded=0;orthogonalLoop=1;jettySize=auto;html=1;entryX=0;entryY=0.5;entryDx=0;entryDy=0;" parent="1" source="RdyJL8XfCO785PZ9XOAZ-88" target="RdyJL8XfCO785PZ9XOAZ-91" edge="1">
          <mxGeometry relative="1" as="geometry" />
        </mxCell>
        <mxCell id="RdyJL8XfCO785PZ9XOAZ-84" style="edgeStyle=orthogonalEdgeStyle;rounded=0;orthogonalLoop=1;jettySize=auto;html=1;entryX=0;entryY=0.5;entryDx=0;entryDy=0;" parent="1" source="RdyJL8XfCO785PZ9XOAZ-88" target="RdyJL8XfCO785PZ9XOAZ-92" edge="1">
          <mxGeometry relative="1" as="geometry" />
        </mxCell>
        <mxCell id="RdyJL8XfCO785PZ9XOAZ-85" style="edgeStyle=orthogonalEdgeStyle;rounded=0;orthogonalLoop=1;jettySize=auto;html=1;entryX=0;entryY=0.5;entryDx=0;entryDy=0;" parent="1" source="RdyJL8XfCO785PZ9XOAZ-88" target="RdyJL8XfCO785PZ9XOAZ-94" edge="1">
          <mxGeometry relative="1" as="geometry" />
        </mxCell>
        <mxCell id="RdyJL8XfCO785PZ9XOAZ-86" style="edgeStyle=orthogonalEdgeStyle;rounded=0;orthogonalLoop=1;jettySize=auto;html=1;entryX=0;entryY=0.5;entryDx=0;entryDy=0;" parent="1" source="RdyJL8XfCO785PZ9XOAZ-88" target="RdyJL8XfCO785PZ9XOAZ-96" edge="1">
          <mxGeometry relative="1" as="geometry" />
        </mxCell>
        <mxCell id="RdyJL8XfCO785PZ9XOAZ-87" style="edgeStyle=orthogonalEdgeStyle;rounded=0;orthogonalLoop=1;jettySize=auto;html=1;entryX=0;entryY=0.5;entryDx=0;entryDy=0;" parent="1" source="RdyJL8XfCO785PZ9XOAZ-88" target="RdyJL8XfCO785PZ9XOAZ-98" edge="1">
          <mxGeometry relative="1" as="geometry" />
        </mxCell>
        <mxCell id="RdyJL8XfCO785PZ9XOAZ-104" style="edgeStyle=orthogonalEdgeStyle;rounded=0;orthogonalLoop=1;jettySize=auto;html=1;entryX=0;entryY=0.5;entryDx=0;entryDy=0;" parent="1" source="RdyJL8XfCO785PZ9XOAZ-88" target="RdyJL8XfCO785PZ9XOAZ-102" edge="1">
          <mxGeometry relative="1" as="geometry" />
        </mxCell>
        <mxCell id="RdyJL8XfCO785PZ9XOAZ-106" style="edgeStyle=orthogonalEdgeStyle;rounded=0;orthogonalLoop=1;jettySize=auto;html=1;" parent="1" source="RdyJL8XfCO785PZ9XOAZ-88" edge="1">
          <mxGeometry relative="1" as="geometry">
            <mxPoint x="590" y="170" as="targetPoint" />
          </mxGeometry>
        </mxCell>
        <mxCell id="RdyJL8XfCO785PZ9XOAZ-88" value="SCULTURA" style="rounded=0;whiteSpace=wrap;html=1;" parent="1" vertex="1">
          <mxGeometry x="690" y="400" width="100" height="50" as="geometry" />
        </mxCell>
        <mxCell id="RdyJL8XfCO785PZ9XOAZ-89" value="" style="ellipse;whiteSpace=wrap;html=1;aspect=fixed;" parent="1" vertex="1">
          <mxGeometry x="780" y="470" width="30" height="30" as="geometry" />
        </mxCell>
        <mxCell id="RdyJL8XfCO785PZ9XOAZ-90" value="CODICE" style="text;html=1;align=center;verticalAlign=middle;resizable=0;points=[];autosize=1;strokeColor=none;fillColor=none;" parent="1" vertex="1">
          <mxGeometry x="810" y="470" width="70" height="30" as="geometry" />
        </mxCell>
        <mxCell id="RdyJL8XfCO785PZ9XOAZ-91" value="" style="ellipse;whiteSpace=wrap;html=1;aspect=fixed;fillColor=#f5f5f5;fontColor=#333333;strokeColor=#666666;" parent="1" vertex="1">
          <mxGeometry x="780" y="510" width="30" height="30" as="geometry" />
        </mxCell>
        <mxCell id="RdyJL8XfCO785PZ9XOAZ-92" value="" style="ellipse;whiteSpace=wrap;html=1;aspect=fixed;fillColor=#f5f5f5;fontColor=#333333;strokeColor=#666666;" parent="1" vertex="1">
          <mxGeometry x="780" y="550" width="30" height="30" as="geometry" />
        </mxCell>
        <mxCell id="RdyJL8XfCO785PZ9XOAZ-93" value="TITOLO" style="text;html=1;align=center;verticalAlign=middle;resizable=0;points=[];autosize=1;strokeColor=none;fillColor=none;" parent="1" vertex="1">
          <mxGeometry x="810" y="550" width="70" height="30" as="geometry" />
        </mxCell>
        <mxCell id="RdyJL8XfCO785PZ9XOAZ-94" value="" style="ellipse;whiteSpace=wrap;html=1;aspect=fixed;fillColor=#f5f5f5;fontColor=#333333;strokeColor=#666666;" parent="1" vertex="1">
          <mxGeometry x="780" y="590" width="30" height="30" as="geometry" />
        </mxCell>
        <mxCell id="RdyJL8XfCO785PZ9XOAZ-95" value="PERSONAGGI" style="text;html=1;align=center;verticalAlign=middle;resizable=0;points=[];autosize=1;strokeColor=none;fillColor=none;" parent="1" vertex="1">
          <mxGeometry x="810" y="590" width="100" height="30" as="geometry" />
        </mxCell>
        <mxCell id="RdyJL8XfCO785PZ9XOAZ-96" value="" style="ellipse;whiteSpace=wrap;html=1;aspect=fixed;fillColor=#f5f5f5;fontColor=#333333;strokeColor=#666666;" parent="1" vertex="1">
          <mxGeometry x="780" y="630" width="30" height="30" as="geometry" />
        </mxCell>
        <mxCell id="RdyJL8XfCO785PZ9XOAZ-97" value="MATERIALE" style="text;html=1;align=center;verticalAlign=middle;resizable=0;points=[];autosize=1;strokeColor=none;fillColor=none;" parent="1" vertex="1">
          <mxGeometry x="815" y="630" width="90" height="30" as="geometry" />
        </mxCell>
        <mxCell id="RdyJL8XfCO785PZ9XOAZ-98" value="" style="ellipse;whiteSpace=wrap;html=1;aspect=fixed;fillColor=#f5f5f5;fontColor=#333333;strokeColor=#666666;" parent="1" vertex="1">
          <mxGeometry x="780" y="670" width="30" height="30" as="geometry" />
        </mxCell>
        <mxCell id="RdyJL8XfCO785PZ9XOAZ-99" value="ALTEZZA" style="text;html=1;align=center;verticalAlign=middle;resizable=0;points=[];autosize=1;strokeColor=none;fillColor=none;" parent="1" vertex="1">
          <mxGeometry x="825" y="670" width="80" height="30" as="geometry" />
        </mxCell>
        <mxCell id="RdyJL8XfCO785PZ9XOAZ-100" value="ANNO DI CREAZIONE" style="text;html=1;align=center;verticalAlign=middle;resizable=0;points=[];autosize=1;strokeColor=none;fillColor=none;" parent="1" vertex="1">
          <mxGeometry x="805" y="510" width="150" height="30" as="geometry" />
        </mxCell>
        <mxCell id="RdyJL8XfCO785PZ9XOAZ-101" value="" style="endArrow=none;html=1;rounded=0;" parent="1" edge="1">
          <mxGeometry width="50" height="50" relative="1" as="geometry">
            <mxPoint x="460" y="585" as="sourcePoint" />
            <mxPoint x="460" y="625" as="targetPoint" />
          </mxGeometry>
        </mxCell>
        <mxCell id="RdyJL8XfCO785PZ9XOAZ-102" value="" style="ellipse;whiteSpace=wrap;html=1;aspect=fixed;fillColor=#f5f5f5;fontColor=#333333;strokeColor=#666666;" parent="1" vertex="1">
          <mxGeometry x="780" y="710" width="30" height="30" as="geometry" />
        </mxCell>
        <mxCell id="RdyJL8XfCO785PZ9XOAZ-103" value="PESO" style="text;html=1;align=center;verticalAlign=middle;resizable=0;points=[];autosize=1;strokeColor=none;fillColor=none;" parent="1" vertex="1">
          <mxGeometry x="835" y="710" width="60" height="30" as="geometry" />
        </mxCell>
        <mxCell id="RdyJL8XfCO785PZ9XOAZ-105" style="edgeStyle=orthogonalEdgeStyle;rounded=0;orthogonalLoop=1;jettySize=auto;html=1;entryX=0.408;entryY=1.064;entryDx=0;entryDy=0;entryPerimeter=0;" parent="1" source="RdyJL8XfCO785PZ9XOAZ-4" target="RdyJL8XfCO785PZ9XOAZ-2" edge="1">
          <mxGeometry relative="1" as="geometry">
            <Array as="points">
              <mxPoint x="591" y="425" />
            </Array>
          </mxGeometry>
        </mxCell>
        <mxCell id="RdyJL8XfCO785PZ9XOAZ-107" value="ESPONE" style="rhombus;whiteSpace=wrap;html=1;" parent="1" vertex="1">
          <mxGeometry x="365" y="105" width="80" height="80" as="geometry" />
        </mxCell>
        <mxCell id="RdyJL8XfCO785PZ9XOAZ-111" value="" style="endArrow=none;html=1;rounded=0;" parent="1" edge="1">
          <mxGeometry width="50" height="50" relative="1" as="geometry">
            <mxPoint x="240" y="170" as="sourcePoint" />
            <mxPoint x="240" y="120" as="targetPoint" />
          </mxGeometry>
        </mxCell>
        <mxCell id="RdyJL8XfCO785PZ9XOAZ-115" value="" style="endArrow=none;html=1;rounded=0;" parent="1" edge="1">
          <mxGeometry width="50" height="50" relative="1" as="geometry">
            <mxPoint x="518.8199999999999" y="180" as="sourcePoint" />
            <mxPoint x="518.8199999999999" y="120" as="targetPoint" />
          </mxGeometry>
        </mxCell>
        <mxCell id="RdyJL8XfCO785PZ9XOAZ-116" value="CREA" style="rhombus;whiteSpace=wrap;html=1;" parent="1" vertex="1">
          <mxGeometry x="760" y="105" width="80" height="80" as="geometry" />
        </mxCell>
        <mxCell id="RdyJL8XfCO785PZ9XOAZ-119" value="" style="endArrow=none;html=1;rounded=0;" parent="1" edge="1">
          <mxGeometry width="50" height="50" relative="1" as="geometry">
            <mxPoint x="170" y="275" as="sourcePoint" />
            <mxPoint x="170" y="185" as="targetPoint" />
          </mxGeometry>
        </mxCell>
        <mxCell id="RdyJL8XfCO785PZ9XOAZ-120" value="" style="ellipse;whiteSpace=wrap;html=1;aspect=fixed;" parent="1" vertex="1">
          <mxGeometry x="160" y="270" width="30" height="30" as="geometry" />
        </mxCell>
        <mxCell id="RdyJL8XfCO785PZ9XOAZ-126" style="edgeStyle=orthogonalEdgeStyle;rounded=0;orthogonalLoop=1;jettySize=auto;html=1;endArrow=doubleBlock;endFill=1;" parent="1" source="RdyJL8XfCO785PZ9XOAZ-121" target="RdyJL8XfCO785PZ9XOAZ-123" edge="1">
          <mxGeometry relative="1" as="geometry" />
        </mxCell>
        <mxCell id="RdyJL8XfCO785PZ9XOAZ-121" value="PERSONAGGIO" style="rounded=0;whiteSpace=wrap;html=1;" parent="1" vertex="1">
          <mxGeometry x="550" y="-140" width="100" height="50" as="geometry" />
        </mxCell>
        <mxCell id="RdyJL8XfCO785PZ9XOAZ-123" value="COMPOSTA" style="rhombus;whiteSpace=wrap;html=1;" parent="1" vertex="1">
          <mxGeometry x="560" y="-20" width="80" height="80" as="geometry" />
        </mxCell>
        <mxCell id="RdyJL8XfCO785PZ9XOAZ-125" value="" style="endArrow=none;html=1;rounded=0;" parent="1" edge="1">
          <mxGeometry width="50" height="50" relative="1" as="geometry">
            <mxPoint x="640" y="100" as="sourcePoint" />
            <mxPoint x="560" y="100" as="targetPoint" />
          </mxGeometry>
        </mxCell>
      </root>
    </mxGraphModel>
  </diagram>
</mxfile>
